<?xml version="1.0" encoding="utf-8"?>
<!-- Svg Vector Icons : http://www.onlinewebfonts.com/icon -->
<!DOCTYPE svg PUBLIC "-//W3C//DTD SVG 1.1//EN" "http://www.w3.org/Graphics/SVG/1.1/DTD/svg11.dtd">
<svg version="1.1" xmlns="http://www.w3.org/2000/svg" xmlns:xlink="http://www.w3.org/1999/xlink" x="0px" y="0px" viewBox="0 0 1000 1000" enable-background="new 0 0 1000 1000" xml:space="preserve">
<metadata> Svg Vector Icons : http://www.onlinewebfonts.com/icon </metadata>
<g><g fill="#94aabb" transform="translate(0.000000,512.000000) scale(0.100000,-0.100000)"><path d="M1487.4,4991.5c-216.5-69-406.3-268.3-458-477.2l-21.1-95.8l-187.8-7.7c-162.9-5.7-203.1-15.3-314.3-69c-155.2-76.7-299-230-362.2-383.3L100,3849.4V122v-3727.3l46-113.1c30.7-78.6,80.5-147.5,164.8-231.9c153.3-153.3,274-203.1,521.3-216.5l176.3-7.7l21.1-95.8c51.7-214.6,254.9-419.7,477.2-482.9c153.3-44.1,1308.9-44.1,1458.4,0c245.3,72.8,429.3,272.1,486.8,530.8l11.5,51.7h2901.4c2849.6,0,2903.3,0,3022.1,38.3c231.9,72.8,406.3,249.1,477.2,479.1c38.3,122.7,38.3,162.9,34.5,3813.6l-5.8,3689l-44.1,109.2c-63.2,155.2-207,306.6-364.1,383.3l-128.4,63.2l-2945.5,5.7l-2947.4,3.8l-11.5,53.7c-40.2,182.1-162.9,358.4-314.3,454.2c-153.3,97.7-226.1,105.4-908.4,103.5C1673.3,5026,1581.3,5022.2,1487.4,4991.5z M2986,4654.2c44.1-30.7,101.6-95.8,126.5-141.8l44.1-84.3V122V-4184l-44.1-84.3c-24.9-46-82.4-109.2-126.5-141.8l-82.4-57.5h-666.9h-666.9l-84.3,57.5c-47.9,34.5-99.6,93.9-124.6,143.7l-44.1,84.3V122c0,4160.4,1.9,4304.2,36.4,4380.8c36.4,78.6,124.6,161,212.7,197.4c30.7,11.5,293.2,17.2,693.7,15.3l643.9-3.8L2986,4654.2z M1010.3,122v-3986H891.5c-67.1,0-155.2,9.6-197.4,21.1c-101.6,28.7-247.2,174.4-276,276c-26.8,101.6-30.7,7270.7-1.9,7366.5c55.6,195.5,222.3,308.5,454.2,308.5h139.9V122z M9336.9,4071.7c86.2-40.2,170.6-116.9,216.5-203.1c30.7-53.7,32.6-350.7,38.3-3706.2c1.9-2636.9-1.9-3669.9-17.2-3727.3c-28.8-103.5-172.5-249.1-276-277.9c-53.7-15.3-910.3-21.1-2955-21.1H3463.2V122v3986h2899.5C9131.8,4108.1,9264.1,4106.2,9336.9,4071.7z"/><path d="M4371.6,3464.2c-90.1-32.6-201.2-132.2-251-224.2c-30.7-55.6-34.5-126.5-34.5-665c0-672.6-1.9-659.2,136.1-793.4c138-134.1,1.9-126.5,2456.8-126.5c1680.7,0,2232.6,5.8,2292,23c105.4,30.7,264.5,189.7,295.1,295.1c30.7,107.3,32.6,1094.2,0,1199.6c-11.5,42.1-59.4,118.8-105.4,168.6c-147.6,164.8,32.6,153.3-2485.5,151.4C4768.3,3492.9,4438.7,3487.2,4371.6,3464.2z M8934.4,3140.3l47.9-46V2575v-519.3l-47.9-46l-46-47.9H6682.7H4477l-46,47.9l-47.9,46V2575v519.3l47.9,46l46,47.9h2205.7h2205.7L8934.4,3140.3z"/><path d="M4225.9,1001.7c-120.7-63.2-149.5-145.6-149.5-423.5c0-274,24.9-343,145.6-412c72.8-42.2,92-44.1,617.1-44.1c505.9,0,546.2,1.9,617.1,38.3c124.6,63.2,153.3,145.6,153.3,423.5c0,270.2-28.8,346.9-153.3,417.8c-69,38.3-97.7,40.2-615.2,40.2C4337.1,1040,4291.1,1038.1,4225.9,1001.7z M5302.9,582V428.7H4843h-459.9V582v153.3H4843h459.9V582z"/><path d="M6065.6,1001.7C5946.8,940.3,5916.2,856,5916.2,582c0-276,28.8-358.4,153.3-421.6c70.9-36.4,111.1-38.3,613.2-38.3S7225,124,7296,160.4c124.6,63.2,153.3,145.6,153.3,421.6s-28.7,358.4-153.3,421.6c-70.9,36.4-111.2,38.3-617.1,38.3C6176.8,1040,6130.8,1038.1,6065.6,1001.7z M7142.6,582V428.7h-459.9h-459.9V582v153.3h459.9h459.9V582z"/><path d="M7909.2,1005.5c-36.4-19.2-86.2-69-109.2-109.2c-38.3-67.1-44.1-101.6-44.1-310.4c0-281.7,28.8-362.2,153.3-425.4c70.9-36.4,111.2-38.3,613.2-38.3s542.3,1.9,613.2,38.3C9260.2,223.6,9289,306,9289,582s-28.7,358.4-153.3,421.6c-70.9,36.4-111.1,38.3-617.1,38.3C8026.1,1041.9,7968.6,1038.1,7909.2,1005.5z M8982.4,582V428.7h-459.9h-459.9V582v153.3h459.9h459.9V582z"/><path d="M4222.1-228.7c-128.4-72.8-147.6-136.1-141.8-435c5.7-231.9,9.6-264.5,47.9-318.1c84.3-116.9,116.9-122.6,712.9-122.6c504,0,544.2,1.9,615.2,38.3c124.6,63.2,153.3,145.6,153.3,423.5c0,270.2-28.8,346.9-153.3,417.8c-69,38.3-97.7,40.3-615.2,40.3C4314.1-184.6,4294.9-186.5,4222.1-228.7z M5302.9-644.5v-153.3H4843h-459.9v153.3v153.3H4843h459.9V-644.5z"/><path d="M6065.6-224.8c-120.7-63.2-149.5-145.6-149.5-423.5c0-274,24.9-343,145.6-412c72.8-42.2,92-44.1,617.1-44.1c505.9,0,546.2,1.9,617.1,38.3c124.6,63.2,153.3,145.6,153.3,423.5c0,270.2-28.7,346.9-153.3,417.8c-69,38.3-97.7,40.3-615.1,40.3C6176.8-186.5,6130.8-188.4,6065.6-224.8z M7142.6-644.5v-153.3h-459.9h-459.9v153.3v153.3h459.9h459.9V-644.5z"/><path d="M7913-217.2c-124.6-61.3-147.6-118.8-153.3-400.5c-7.7-300.8,19.2-381.3,149.5-448.4c70.9-36.4,111.2-38.3,615.1-38.3c513.6,0,542.4,1.9,611.3,40.2c124.6,70.9,153.3,147.6,153.3,417.8c0,277.9-28.7,360.3-153.3,423.5c-70.9,36.4-111.1,38.3-617.1,38.3C8058.7-184.6,7966.7-190.3,7913-217.2z M8982.4-644.5v-153.3h-459.9h-459.9v153.3v153.3h459.9h459.9V-644.5z"/><path d="M4222.1-1455.1c-128.4-72.8-147.6-136.1-141.8-435c5.7-231.9,9.6-264.5,47.9-318.1c84.3-116.9,116.9-122.6,714.8-122.6c515.5,0,544.3,1.9,613.2,40.2c124.6,70.9,153.3,147.6,153.3,419.7s-28.8,348.8-153.3,419.7c-69,38.3-97.7,40.3-615.2,40.3C4314.1-1411.1,4294.9-1413,4222.1-1455.1z M5302.9-1871v-153.3H4843h-459.9v153.3v153.3H4843h459.9V-1871z"/><path d="M6065.6-1451.3c-120.7-63.2-149.5-145.6-149.5-423.5c0-274,24.9-343,145.6-412c72.8-42.2,92-44.1,617.1-44.1c505.9,0,546.2,1.9,617.1,38.3c124.6,63.2,153.3,145.6,153.3,423.5c0,270.2-28.7,346.9-153.3,417.8c-69,38.3-97.7,40.3-615.1,40.3C6176.8-1413,6130.8-1414.9,6065.6-1451.3z M7142.6-1871v-153.3h-459.9h-459.9v153.3v153.3h459.9h459.9V-1871z"/><path d="M7905.4-1451.3c-118.8-61.3-149.5-145.6-149.5-419.7c0-276,28.8-358.4,153.3-421.6c70.9-36.4,111.2-38.3,615.1-38.3c513.6,0,542.4,1.9,611.3,40.2c124.6,70.9,153.3,147.6,153.3,417.8c0,277.9-28.7,360.3-153.3,423.5c-70.9,36.4-111.1,38.3-617.1,38.3C8016.5-1413,7970.5-1414.9,7905.4-1451.3z M8982.4-1871v-153.3h-459.9h-459.9v153.3v153.3h459.9h459.9V-1871z"/><path d="M4222.1-2681.6c-128.4-72.8-147.6-136.1-141.8-435c5.7-231.9,9.6-264.5,47.9-318.1c84.3-116.9,116.9-122.7,714.8-122.7c515.5,0,544.3,1.9,613.2,40.2c124.6,70.9,153.3,147.6,153.3,419.7c0,272.1-28.8,348.8-153.3,419.7c-69,38.3-97.7,40.2-615.2,40.2C4314.1-2637.5,4294.9-2639.4,4222.1-2681.6z M5302.9-3097.5v-153.3H4843h-459.9v153.3v153.3H4843h459.9V-3097.5z"/><path d="M6065.6-2677.8c-46-23-88.1-67.1-113.1-115c-34.5-70.9-38.3-105.4-32.6-331.6c5.8-224.2,9.6-256.8,47.9-310.4c84.3-116.9,116.9-122.7,712.9-122.7c504,0,544.2,1.9,615.1,38.3c124.6,63.2,153.3,145.6,153.3,423.5c0,270.2-28.7,346.9-153.3,417.8c-69,38.3-97.7,40.2-615.1,40.2C6176.8-2639.4,6130.8-2641.4,6065.6-2677.8z M7142.6-3097.5v-153.3h-459.9h-459.9v153.3v153.3h459.9h459.9V-3097.5z"/><path d="M7905.4-2677.8c-120.7-63.3-149.5-145.7-149.5-423.5c0-274,24.9-343,145.6-412c72.8-42.2,92-44.1,617.1-44.1c505.9,0,546.2,1.9,617.1,38.3c124.6,63.2,153.3,145.6,153.3,421.6c0,276-28.7,358.4-153.3,421.6c-70.9,36.4-111.1,38.3-617.1,38.3C8016.5-2639.4,7970.5-2641.4,7905.4-2677.8z M8982.4-3097.5v-153.3h-459.9h-459.9v153.3v153.3h459.9h459.9V-3097.5z"/></g></g>
</svg>